<?xml version="1.0" encoding="utf-8"?>
<!-- Generator: Adobe Illustrator 20.1.0, SVG Export Plug-In . SVG Version: 6.00 Build 0)  -->
<svg version="1.1" id="Layer_1" xmlns="http://www.w3.org/2000/svg" xmlns:xlink="http://www.w3.org/1999/xlink" x="0px" y="0px"
	 viewBox="0 0 612 792" style="enable-background:new 0 0 612 792;" xml:space="preserve">
<style type="text/css">
	.st0{fill:none;stroke:#8CCCF0;stroke-width:16;stroke-miterlimit:10;}
	.st1{font-family:'BradleyHandITCTT-Bold';}
	.st2{font-size:41.1277px;}
</style>
<g>
	<path class="st0" d="M389.9,352.2c-4.2-11.2-14.5-19.7-27.3-24c-0.2-1.6-0.5-3.3-1.1-4.8c-6.1-16.4-33.9-24.3-62.9-18.2
		c-11.9-2.6-26.6-2.4-41.6,1.3c-0.2-0.8-0.5-1.6-0.8-2.5c-6.4-17.3-30-26.9-52.5-21.4c-12.4,3-21.9,10-26.9,18.6
		c-7.6-0.1-15.5,0.7-23.3,2.6c-33.8,8.3-54.3,33.6-45.8,56.6c0,0,0,0.1,0,0.1c-3.5,7.6-4.2,16-1.1,24.1
		c5.4,14.5,21.2,24.5,39.6,26.9c-0.3,2.4-0.1,4.7,0.7,7c4.6,12.2,25.7,18.4,50.7,15.9c9.7,11.5,37.4,15.3,66.3,8.2
		c4.2-1,8.2-2.2,11.9-3.6c16.5,8.9,43.1,11.3,70.1,4.6c39.3-9.6,64.9-34.6,57-55.6c-2.2-5.9-6.8-10.8-13.1-14.7
		C392.4,366.4,392.5,359.2,389.9,352.2z"/>
	<text transform="matrix(1.2327 0 0 1 155.5387 376.5546)" class="st1 st2">Innovate</text>
</g>
</svg>
