<?xml version="1.0" encoding="utf-8"?>
<!-- Generator: Adobe Illustrator 20.1.0, SVG Export Plug-In . SVG Version: 6.00 Build 0)  -->
<svg version="1.1" id="Layer_1" xmlns="http://www.w3.org/2000/svg" xmlns:xlink="http://www.w3.org/1999/xlink" x="0px" y="0px"
	 viewBox="0 0 612 792" style="enable-background:new 0 0 612 792;" xml:space="preserve">
<style type="text/css">
	.st0{fill:none;}
	.st1{font-family:'SavoyeLetPlain';}
	.st2{font-size:60px;}
	.st3{enable-background:new    ;}
	.st4{fill:#266B8B;}
	.st5{fill:#43A5D4;}
</style>
<rect x="62.7" y="271" class="st0" width="210.8" height="46"/>
<text transform="matrix(1 0 0 1 62.7013 312.242)" class="st1 st2">usable</text>
<g>
	<g>
		<g class="st3">
			<g>
				<polygon class="st4" points="222.1,299.8 216.4,304.2 207.9,295.5 213.6,291.2 				"/>
			</g>
			<g>
				<polygon class="st4" points="213.9,308.3 208.2,312.7 208,312.5 213.7,308.2 				"/>
			</g>
			<g>
				<polygon class="st4" points="213.7,308.2 208,312.5 216.4,304.2 222.1,299.8 				"/>
			</g>
			<g>
				<polygon class="st4" points="205.2,299.5 199.4,303.8 207.9,295.5 213.6,291.2 				"/>
			</g>
			<g>
				<polygon class="st4" points="174.1,267.9 168.4,272.2 176.9,263.7 182.7,259.4 				"/>
			</g>
			<g>
				<polygon class="st4" points="205.2,299.5 199.4,303.8 168.4,272.2 174.1,267.9 				"/>
			</g>
			<g>
				<polygon class="st5" points="182.7,259.4 222.5,299.9 213.9,308.3 213.7,308.2 222.1,299.8 213.6,291.2 205.2,299.5 
					174.1,267.9 				"/>
			</g>
			<g>
				<polygon class="st4" points="182.2,339.3 176.4,343.6 167.9,335 173.7,330.6 				"/>
			</g>
			<g>
				<polygon class="st4" points="173.7,330.6 167.9,335 199.4,303.8 205.2,299.5 				"/>
			</g>
			<g>
				<polygon class="st5" points="213.6,291.2 222.1,299.8 213.7,308.2 182.2,339.3 173.7,330.6 205.2,299.5 				"/>
			</g>
		</g>
	</g>
</g>
<text transform="matrix(1 0 0 1 240.2619 310.304)" class="st1 st2">more functionality</text>
</svg>
